<svg xmlns="http://www.w3.org/2000/svg" version="1.1" xmlns:xlink="http://www.w3.org/1999/xlink" xmlns:svgjs="http://svgjs.dev/svgjs" viewBox="0 0 800 800"><defs><linearGradient x1="50%" y1="0%" x2="50%" y2="100%" id="ccchaos-grad"><stop stop-color="hsl(206, 75%, 49%)" stop-opacity="1" offset="0%"></stop><stop stop-color="hsl(345, 68%, 52%)" stop-opacity="1" offset="100%"></stop></linearGradient></defs><g stroke-width="2.5" stroke="url(#ccchaos-grad)" fill="none" stroke-linecap="round"><path d="M377.53 105.7C387.67 107.34 397.68 108.18 407.54 108.2 417.41 106.91 427.15 105.1 436.74 102.98 446.37 100.27 455.9 97.87 465.32 96.06 474.83 94.61 484.28 94.32 493.71 95.36 503.28 97.42 512.89 101.06 522.54 106.24 532.4 112.58 542.38 120.33 552.47 129.28 562.81 139.03 573.29 149.62 583.91 160.78 594.76 172.16 605.71 183.73 616.69 195.29 627.81 206.54 638.86 217.52 649.72 228.16 660.49 238.18 670.89 247.8 680.75 257.03 690.22 265.6 698.9 273.88 706.63 281.94 713.64 289.45 719.47 296.91 723.96 304.43 727.52 311.56 729.63 318.9 730.23 326.56 729.89 333.97 728.11 341.82 724.96 350.17 721.18 358.39 716.3 367.2 710.52 376.66 704.68 386.06 698.37 396.17 691.83 407.03 685.91 417.9 680.34 429.32 675.28 441.27 671.28 453.27 667.96 465.83 665.34 478.9 663.86 492.01 662.99 505.61 662.63 519.59 663.16 533.52 663.94 547.68 664.81 561.89 666.14 575.78 667.24 589.41 667.95 602.48 668.7 614.76 668.78 626.03 668.11 635.92 666.21 647.81 657.05 658.7 649.74 656.9 644.08 653.43 637.55 647.9 630.22 640.67 622.5 633.17 614.08 625.09 605.08 617.18 595.81 610.99 586.05 606.48 575.91 604.46 565.61 606.05 555.03 611.16 544.23 620.11 533.37 633.05 522.35 649.42 511.26 668.59 500.15 689.7 488.99 711.53 477.83 732.65 466.67 751.86 455.53 767.62 444.42 778.63 433.32 784.42 422.26 784.02 411.25 777.24 400.25 765.18 389.54 748.45 379.14 728.53 368.71 707.19 358.57 685.73 348.71 665.67 338.8 648.41 329.15 634.7 319.75 625.13 310.28 620.23 301.04 619.58 292.03 622.67 282.93 629.43 274.02 638.43 265.32 648.65 256.5 659.97 247.86 670.65 239.41 679.84 230.84 687.78 222.44 693.05 214.23 695.38 205.9 695.31 197.76 692.12 189.85 686.04 181.85 677.69 174.09 666.98 166.61 654.39 159.1 640.34 151.9 625.14 145.06 609.26 138.25 592.8 131.85 576.25 125.9 559.91 120.06 543.58 114.7 527.76 109.89 512.59 105.24 497.68 101.15 483.47 97.67 469.98 94.37 456.76 91.69 444.19 89.65 432.22 87.8 420.42 86.58 409.12 86.03 398.28 85.62 387.51 85.85 377.11 86.73 367.08 87.7 357.06 89.25 347.6 91.34 338.71 93.45 329.8 96.04 321.46 99.09 313.7 102.07 305.93 105.45 298.75 109.2 292.17 112.82 285.55 116.77 279.51 121.01 274.03 125.08 268.43 129.43 263.29 134.04 258.54 138.46 253.48 143.14 248.65 148.07 243.93 152.82 238.64 157.85 233.24 163.15 227.59 168.31 221.14 173.78 214.27 179.54 206.88 185.23 198.61 191.25 189.8 197.6 180.5 203.93 170.52 210.61 160.25 217.64 149.88 224.69 139.37 232.09 129.19 239.83 119.61 247.61 110.6 255.72 102.68 264.15 96.08 272.61 90.63 281.38 86.76 290.41 84.58 299.47 83.59 308.78 84.14 318.3 86.08 327.84 88.62 337.57 92 347.45 95.91 357.34 99.41 367.38 102.77 377.52 105.7" stroke-dasharray="23 10" transform="rotate(0, 400, 400)" opacity="0.05"></path><path d="M377.84 120.3C387.55 122.01 397.18 122.92 406.71 123.01 416.26 121.82 425.73 120.07 435.11 117.97 444.53 115.21 453.91 112.65 463.23 110.57 472.63 108.7 482.03 107.85 491.43 108.19 500.96 109.43 510.55 112.14 520.21 116.32 530.03 121.61 539.97 128.32 549.99 136.28 560.22 145.13 570.54 154.94 580.95 165.47 591.51 176.41 602.1 187.73 612.65 199.22 623.25 210.62 633.7 221.94 643.87 233.04 653.9 243.73 663.49 254.1 672.48 264.13 681.06 273.63 688.85 282.82 695.69 291.76 701.84 300.2 706.87 308.51 710.65 316.77 713.58 324.64 715.18 332.62 715.42 340.77 714.83 348.68 712.96 356.89 709.85 365.49 706.21 373.96 701.59 382.9 696.17 392.39 690.7 401.83 684.8 411.88 678.68 422.58 673.11 433.29 667.81 444.44 662.94 456.01 659.01 467.61 655.65 479.61 652.89 491.96 651.15 504.29 649.95 516.88 649.21 529.61 649.31 542.18 649.64 554.71 650.09 566.98 651.02 578.82 651.79 590.1 652.26 600.55 652.84 610.16 652.88 618.55 652.29 625.44 646.88 634.74 629.07 624.89 619.79 615.11 612.99 608.56 605.52 602.04 597.44 596.22 589.11 592.43 580.27 590.57 571 591.28 561.58 595.38 551.81 602.72 541.79 613.43 531.68 627.5 521.37 644.37 510.93 663.36 500.45 683.68 489.88 704.21 479.26 723.72 468.63 741.19 457.97 755.31 447.31 764.96 436.66 769.86 426.01 769.14 415.38 762.64 404.75 751.39 394.38 735.87 384.29 717.34 374.17 697.36 364.31 677.01 354.69 657.64 345.04 640.49 335.61 626.29 326.41 615.6 317.15 609.02 308.09 606.26 299.24 607.02 290.31 611.34 281.55 618.06 272.99 626.35 264.32 636.17 255.82 645.98 247.5 654.99 239.07 663.43 230.82 669.9 222.75 674.05 214.58 676.37 206.61 675.99 198.87 672.97 191.05 667.94 183.48 660.55 176.2 651.15 168.89 640.23 161.91 627.87 155.28 614.48 148.7 600.27 142.52 585.56 136.78 570.68 131.16 555.55 126.02 540.58 121.4 525.99 116.95 511.45 113.04 497.41 109.73 483.97 106.6 470.68 104.08 457.97 102.18 445.87 100.46 433.9 99.37 422.48 98.92 411.6 98.62 400.77 98.93 390.43 99.88 380.57 100.92 370.7 102.53 361.51 104.65 352.97 106.78 344.4 109.39 336.44 112.42 329.1 115.39 321.7 118.75 314.88 122.45 308.61 126.02 302.24 129.91 296.36 134.08 290.93 138.07 285.28 142.33 279.96 146.84 274.88 151.15 269.41 155.71 264 160.51 258.56 165.13 252.51 170 246.24 175.11 239.65 180.08 232.28 185.34 224.48 190.86 216.2 196.29 207.16 202.02 197.69 208.06 187.85 214.05 177.54 220.37 167.11 227 156.76 233.63 146.48 240.59 136.68 247.86 127.63 255.15 119.28 262.77 112.09 270.68 106.26 278.61 101.59 286.84 98.47 295.33 96.97 303.84 96.57 312.6 97.61 321.59 99.93 330.58 102.75 339.79 106.32 349.17 110.34 358.56 113.92 368.12 117.33 377.83 120.29" stroke-dasharray="1 1" transform="rotate(2.6363636363636362, 400, 400)" opacity="0.09"></path><path d="M379.3 134.9C388.61 136.66 397.88 137.65 407.1 137.83 416.33 136.76 425.54 135.11 434.71 133.07 443.91 130.31 453.11 127.66 462.29 125.37 471.55 123.17 480.84 121.83 490.16 121.54 499.59 122 509.08 123.81 518.64 126.99 528.34 131.22 538.12 136.82 547.97 143.69 557.96 151.49 568.01 160.33 578.08 170.02 588.24 180.26 598.36 191.04 608.38 202.16 618.37 213.41 628.13 224.73 637.57 236 646.81 247.05 655.56 257.91 663.68 268.52 671.39 278.74 678.3 288.69 684.29 298.39 689.64 307.68 693.93 316.8 697.05 325.8 699.43 334.45 700.59 343.1 700.51 351.82 699.73 360.31 697.79 368.98 694.76 377.91 691.27 386.7 686.93 395.84 681.84 405.38 676.75 414.88 671.25 424.84 665.52 435.31 660.29 445.77 655.27 456.52 650.6 467.51 646.75 478.5 643.38 489.7 640.52 501.03 638.57 512.3 637.08 523.59 636 534.77 635.69 545.72 635.61 556.36 635.65 566.49 636.18 576.14 636.61 585.01 636.81 592.87 632.38 610.23 616.56 599.26 608.45 590.68 602.5 585.59 595.89 581.01 588.69 577.52 581.25 576.19 573.29 576.91 564.89 580.13 556.32 586.45 547.38 595.65 538.14 607.73 528.81 622.56 519.23 639.57 509.47 658.11 499.67 677.45 489.72 696.59 479.67 714.46 469.62 730.24 459.48 742.78 449.31 751.18 439.14 755.26 428.92 754.25 418.7 748.04 408.48 737.58 398.47 723.21 388.7 706.03 378.92 687.4 369.34 668.2 359.99 649.62 350.6 632.76 341.41 618.28 332.42 606.75 323.38 598.75 314.52 594.14 305.84 592.76 297.09 594.74 288.51 599.16 280.09 605.36 271.6 613.4 263.26 621.91 255.09 630.2 246.84 638.51 238.75 645.5 230.85 650.77 222.88 654.78 215.1 656.57 207.54 656.08 199.95 653.91 192.59 649.54 185.53 643.18 178.46 635.36 171.71 625.95 165.32 615.28 158.99 603.67 153.05 591.24 147.55 578.32 142.17 564.95 137.25 551.43 132.86 537.98 128.62 524.42 124.92 511.12 121.79 498.21 118.84 485.34 116.48 472.93 114.73 461.04 113.15 449.23 112.18 437.92 111.83 427.15 111.63 416.42 112.03 406.19 113.04 396.47 114.14 386.75 115.78 377.73 117.92 369.37 120.08 360.97 122.68 353.18 125.69 345.98 128.65 338.69 131.97 331.92 135.62 325.65 139.15 319.2 142.97 313.15 147.06 307.44 150.99 301.43 155.17 295.63 159.58 289.95 163.81 283.81 168.27 277.64 172.94 271.32 177.44 264.4 182.17 257.2 187.13 249.66 191.94 241.43 197 232.79 202.31 223.75 207.52 214.11 213 204.17 218.76 194.02 224.45 183.6 230.45 173.23 236.73 163.12 242.99 153.26 249.55 144.02 256.41 135.65 263.27 128.08 270.43 121.71 277.87 116.72 285.32 112.85 293.06 110.49 301.06 109.65 309.06 109.83 317.32 111.32 325.81 113.97 334.31 117.03 343.03 120.75 351.95 124.85 360.87 128.48 369.99 131.91 379.29 134.89" stroke-dasharray="13 5" transform="rotate(5.2727272727272725, 400, 400)" opacity="0.14"></path><path d="M381.85 149.49C390.76 151.31 399.69 152.37 408.6 152.65 417.52 151.72 426.46 150.2 435.39 148.25 444.35 145.57 453.34 142.89 462.35 140.46 471.42 138.01 480.54 136.26 489.69 135.42 498.94 135.18 508.25 136.15 517.62 138.36 527.09 141.53 536.61 146 546.17 151.72 555.83 158.36 565.49 166.09 575.12 174.74 584.78 184.06 594.34 194.04 603.73 204.51 613.04 215.27 622.08 226.28 630.74 237.39 639.15 248.47 647.06 259.49 654.33 270.36 661.18 281.02 667.25 291.47 672.44 301.71 677.04 311.66 680.65 321.42 683.19 331.02 685.07 340.36 685.85 349.62 685.52 358.85 684.59 367.89 682.62 376.99 679.68 386.21 676.37 395.32 672.29 404.63 667.55 414.18 662.82 423.69 657.71 433.5 652.37 443.62 647.47 453.74 642.72 463.94 638.25 474.18 634.51 484.41 631.15 494.63 628.22 504.75 626.09 514.78 624.36 524.6 622.98 534.07 622.3 543.29 621.84 551.99 621.5 559.99 617.25 585.84 603.41 574.64 596.32 568.06 591.11 564.79 585.29 562.37 578.89 561.28 572.28 562.36 565.15 565.48 557.57 570.95 549.83 579.13 541.7 589.81 533.24 602.86 524.68 618.07 515.84 634.92 506.78 652.76 497.67 670.97 488.37 688.65 478.93 704.87 469.47 719 459.9 730.06 450.24 737.28 440.58 740.61 430.84 739.36 421.05 733.44 411.26 723.73 401.65 710.48 392.22 694.61 382.79 677.31 373.53 659.3 364.46 641.59 355.36 625.17 346.43 610.62 337.67 598.5 328.87 589.36 320.23 583.17 311.75 579.88 303.21 579.67 294.82 581.85 286.59 585.91 278.3 591.96 270.15 598.86 262.16 606 254.11 613.62 246.23 620.5 238.53 626.22 230.78 631.23 223.22 634.5 215.89 635.91 208.54 636.04 201.44 634.21 194.62 630.53 187.82 625.57 181.34 618.99 175.2 611.04 169.14 602.13 163.47 592.21 158.22 581.54 153.1 570.3 148.44 558.64 144.27 546.77 140.27 534.66 136.78 522.56 133.85 510.63 131.09 498.63 128.9 486.92 127.29 475.57 125.86 464.25 125.02 453.32 124.76 442.84 124.66 432.39 125.13 422.38 126.19 412.82 127.34 403.27 129.01 394.36 131.16 386.06 133.32 377.72 135.92 369.93 138.9 362.66 141.83 355.28 145.11 348.34 148.7 341.78 152.18 335.04 155.95 328.57 159.97 322.33 163.83 315.77 167.94 309.3 172.25 302.83 176.4 295.92 180.76 288.89 185.33 281.66 189.73 273.88 194.34 265.81 199.16 257.4 203.83 248.44 208.73 239.15 213.86 229.55 218.87 219.55 224.14 209.38 229.66 199.16 235.1 188.87 240.81 178.8 246.78 169.14 252.72 159.89 258.93 151.38 265.43 143.82 271.89 137.12 278.65 131.64 285.68 127.52 292.69 124.48 299.99 122.86 307.54 122.66 315.08 123.37 322.89 125.28 330.93 128.22 338.96 131.48 347.24 135.3 355.73 139.44 364.22 143.08 372.92 146.51 381.84 149.49" stroke-dasharray="4 20" transform="rotate(7.909090909090908, 400, 400)" opacity="0.18"></path><path d="M385.34 164.09C393.88 165.95 402.46 167.08 411.06 167.47 419.67 166.69 428.31 165.33 436.98 163.52 445.68 160.94 454.42 158.31 463.19 155.81 472.02 153.19 480.9 151.14 489.82 149.83 498.8 148.98 507.85 149.19 516.92 150.51 526.06 152.65 535.24 156.02 544.4 160.56 553.62 165.99 562.8 172.51 571.89 180 580.97 188.19 589.9 197.15 598.6 206.71 607.19 216.7 615.45 227.07 623.31 237.68 630.9 248.43 637.97 259.26 644.4 270.06 650.43 280.8 655.72 291.43 660.16 301.91 664.08 312.22 667.08 322.37 669.1 332.35 670.55 342.15 671 351.84 670.46 361.41 669.42 370.86 667.46 380.27 664.63 389.67 661.52 398.99 657.7 408.38 653.3 417.83 648.91 427.27 644.18 436.82 639.22 446.48 634.64 456.15 630.17 465.69 625.91 475.07 622.28 484.42 618.96 493.56 615.98 502.4 613.72 511.13 611.78 519.45 610.14 527.24 608.74 538.23 607.28 555.74 606.77 561.71 602.11 563.85 589.76 551.85 583.52 547.83 578.97 546.58 573.83 546.4 568.15 547.65 562.29 550.98 555.92 556.23 549.11 563.58 542.16 573.25 534.8 584.99 527.09 598.62 519.29 613.88 511.18 630.28 502.82 647.22 494.4 664.16 485.76 680.33 476.94 694.92 468.1 707.48 459.11 717.13 449.99 723.26 440.86 725.91 431.63 724.46 422.3 718.84 412.97 709.86 403.78 697.67 394.73 683.07 385.68 667.08 376.77 650.27 368 633.51 359.22 617.67 350.58 603.25 342.08 590.78 333.55 580.78 325.16 573.29 316.91 568.34 308.61 566.16 300.45 566.22 292.44 568.18 284.38 572.16 276.46 577.23 268.7 582.9 260.89 589.38 253.24 595.62 245.78 601.19 238.29 606.51 230.99 610.59 223.92 613.24 216.86 615 210.03 615.13 203.49 613.64 196.99 611.1 190.79 607.03 184.94 601.6 179.18 595.28 173.8 587.84 168.83 579.49 163.99 570.54 159.59 560.95 155.67 550.93 151.91 540.59 148.65 530.02 145.91 519.38 143.36 508.62 141.34 497.93 139.89 487.41 138.6 476.87 137.88 466.57 137.72 456.57 137.71 446.58 138.25 436.9 139.34 427.57 140.54 418.23 142.22 409.43 144.36 401.14 146.52 392.8 149.1 384.92 152.04 377.44 154.93 369.85 158.17 362.59 161.69 355.6 165.12 348.42 168.82 341.41 172.76 334.5 176.56 327.3 180.59 320.09 184.82 312.81 188.9 305.13 193.17 297.28 197.64 289.21 201.94 280.69 206.45 271.9 211.14 262.83 215.7 253.36 220.46 243.65 225.43 233.76 230.28 223.66 235.36 213.53 240.67 203.51 245.88 193.6 251.35 184.06 257.06 175.06 262.71 166.58 268.63 158.93 274.8 152.29 280.93 146.53 287.33 141.98 293.98 138.74 300.62 136.51 307.52 135.61 314.66 136.02 321.8 137.22 329.19 139.48 336.82 142.67 344.43 146.08 352.29 149.96 360.38 154.1 368.47 157.72 376.79 161.12 385.33 164.09" stroke-dasharray="11 10" transform="rotate(10.545454545454545, 400, 400)" opacity="0.22"></path><path d="M389.59 178.69C397.77 180.57 406 181.77 414.27 182.27 422.55 181.66 430.88 180.48 439.25 178.84 447.65 176.43 456.09 173.89 464.57 171.41 473.09 168.71 481.67 166.44 490.27 164.77 498.92 163.42 507.6 162.96 516.29 163.48 525.03 164.68 533.76 166.99 542.44 170.39 551.14 174.6 559.75 179.87 568.24 186.1 576.67 193.05 584.91 200.82 592.88 209.27 600.71 218.22 608.19 227.68 615.23 237.49 622.02 247.58 628.27 257.86 633.9 268.24 639.16 278.69 643.71 289.14 647.47 299.5 650.76 309.83 653.22 320.04 654.78 330.1 655.86 340.08 656.05 349.92 655.35 359.61 654.24 369.23 652.31 378.74 649.62 388.15 646.69 397.51 643.15 406.81 639.07 416.04 635.03 425.26 630.66 434.44 626.06 443.54 621.8 452.65 617.6 461.45 613.56 469.92 610.06 478.36 606.8 486.4 603.81 493.99 601.44 501.46 599.34 508.38 597.49 514.67 587.44 538.07 575.74 531.55 570.22 530.41 566.2 531.23 561.65 533.22 556.6 536.65 551.41 541.95 545.73 548.99 539.62 557.85 533.39 568.6 526.75 581.01 519.76 594.85 512.68 609.84 505.27 625.54 497.59 641.41 489.86 657 481.88 671.63 473.69 684.63 465.47 695.66 457.07 704 448.51 709.14 439.94 711.17 431.22 709.56 422.39 704.25 413.55 695.96 404.8 684.8 396.16 671.42 387.52 656.7 378.98 641.1 370.56 625.36 362.13 610.22 353.81 596.11 345.61 583.52 337.39 572.92 329.28 564.42 321.3 558.09 313.29 554.18 305.4 552.32 297.65 552.27 289.86 554.19 282.21 557.34 274.71 561.32 267.19 566.34 259.82 571.49 252.63 576.4 245.44 581.45 238.44 585.69 231.67 588.92 224.91 591.66 218.4 593.1 212.17 593.21 205.99 592.54 200.11 590.52 194.58 587.22 189.13 583.18 184.06 578.01 179.38 571.85 174.83 565.13 170.71 557.64 167.05 549.54 163.55 541.09 160.53 532.22 158.01 523.08 155.66 513.77 153.82 504.32 152.52 494.84 151.38 485.31 150.77 475.83 150.7 466.47 150.77 457.11 151.37 447.9 152.5 438.87 153.72 429.84 155.41 421.19 157.53 412.91 159.68 404.59 162.22 396.58 165.11 388.85 167.96 381.02 171.13 373.4 174.59 365.93 177.96 358.29 181.59 350.72 185.44 343.16 189.18 335.34 193.13 327.45 197.27 319.44 201.27 311.11 205.47 302.6 209.84 293.87 214.06 284.82 218.47 275.55 223.05 266.08 227.5 256.37 232.14 246.53 236.96 236.65 241.67 226.72 246.59 216.92 251.72 207.36 256.75 198.07 262 189.25 267.48 181.09 272.89 173.53 278.54 166.86 284.43 161.21 290.27 156.43 296.35 152.82 302.68 150.46 308.97 149.01 315.52 148.79 322.31 149.75 329.07 151.38 336.08 153.95 343.33 157.31 350.57 160.82 358.05 164.73 365.76 168.82 373.46 172.41 381.4 175.75 389.58 178.69" stroke-dasharray="12 13" transform="rotate(13.181818181818182, 400, 400)" opacity="0.27"></path><path d="M394.39 193.29C402.2 195.19 410.08 196.45 418 197.06 425.93 196.63 433.92 195.64 441.95 194.2 450 192 458.1 189.61 466.23 187.22 474.39 184.51 482.58 182.13 490.79 180.21 499.03 178.47 507.28 177.47 515.51 177.3 523.76 177.67 531.97 179.02 540.09 181.35 548.2 184.38 556.19 188.41 564.01 193.36 571.75 199 579.27 205.47 586.48 212.67 593.55 220.4 600.24 228.72 606.49 237.48 612.48 246.61 617.96 256.04 622.84 265.66 627.37 275.48 631.24 285.38 634.39 295.29 637.13 305.26 639.1 315.18 640.28 324.99 641.04 334.81 641.02 344.5 640.2 354.02 639.06 363.54 637.19 372.9 634.64 382.09 631.92 391.28 628.64 400.3 624.89 409.15 621.18 418.01 617.16 426.69 612.91 435.16 608.96 443.63 605.03 451.66 601.2 459.23 597.85 466.77 594.67 473.79 591.7 480.25 588.15 489.49 582.8 504.35 580.81 509.75 572.54 515.93 561.53 514.28 556.56 516.09 552.99 518.89 548.93 522.86 544.43 528.18 539.8 535.12 534.73 543.57 529.25 553.52 523.66 564.95 517.69 577.64 511.35 591.34 504.95 605.8 498.22 620.59 491.19 635.25 484.12 649.42 476.78 662.51 469.21 673.97 461.61 683.57 453.8 690.68 445.81 694.91 437.81 696.4 429.63 694.66 421.31 689.65 412.98 682.03 404.71 671.85 396.51 659.64 388.31 646.18 380.18 631.79 372.14 617.1 364.09 602.76 356.13 589.12 348.27 576.62 340.39 565.69 332.61 556.46 324.95 549.03 317.26 543.67 309.69 540.13 302.23 538.26 294.77 538.22 287.43 539.45 280.23 541.63 273.04 544.99 265.99 548.76 259.12 552.6 252.27 556.87 245.61 560.73 239.16 563.95 232.76 567.02 226.59 569.14 220.69 570.22 212.1 570.54 196.65 564.75 189.91 558.86 185.67 554.13 181.84 548.56 178.46 542.29 175.22 535.68 172.43 528.51 170.13 520.91 167.99 513.12 166.33 505.02 165.18 496.7 164.18 488.3 163.69 479.78 163.71 471.18 163.85 462.58 164.5 453.94 165.65 445.32 166.89 436.69 168.58 428.27 170.67 420.05 172.79 411.81 175.28 403.73 178.11 395.8 180.91 387.79 184.01 379.86 187.38 371.98 190.68 363.96 194.23 355.92 198 347.83 201.66 339.54 205.53 331.14 209.58 322.59 213.5 313.82 217.61 304.88 221.88 295.77 226.02 286.47 230.34 277.02 234.82 267.46 239.17 257.82 243.69 248.16 248.39 238.59 252.98 229.12 257.75 219.9 262.72 211.05 267.58 202.58 272.66 194.68 277.93 187.49 283.13 180.96 288.55 175.32 294.19 170.71 299.77 166.92 305.58 164.24 311.61 162.72 317.61 162.01 323.84 162.4 330.3 163.85 336.73 165.84 343.4 168.66 350.3 172.15 357.18 175.71 364.3 179.6 371.64 183.62 378.98 187.13 386.56 190.4 394.38 193.29" stroke-dasharray="13 7" transform="rotate(15.818181818181817, 400, 400)" opacity="0.31"></path><path d="M399.48 207.89C406.92 209.79 414.43 211.11 421.98 211.83 429.54 211.58 437.16 210.8 444.8 209.59 452.46 207.62 460.17 205.44 467.89 203.19 475.63 200.57 483.39 198.16 491.14 196.1 498.9 194.1 506.65 192.69 514.35 191.96 522.05 191.63 529.67 192.13 537.18 193.5 544.66 195.45 551.98 198.3 559.1 202.02 566.12 206.36 572.9 211.5 579.35 217.37 585.65 223.78 591.58 230.8 597.06 238.34 602.3 246.27 607.05 254.6 611.23 263.21 615.1 272.08 618.36 281.12 620.95 290.26 623.2 299.54 624.76 308.84 625.61 318.08 626.11 327.39 625.92 336.61 625.04 345.69 623.88 354.8 622.09 363.76 619.71 372.51 617.19 381.28 614.18 389.85 610.74 398.17 607.35 406.51 603.66 414.6 599.75 422.38 596.1 430.17 592.44 437.44 588.84 444.18 585.64 450.89 582.56 457.03 579.63 462.57 573.09 476.6 566.09 490.59 564.3 492.75 557.65 495.37 547.27 500.35 542.74 504.96 539.51 509.53 535.86 515.19 531.8 522.05 527.66 530.26 523.11 539.7 518.17 550.32 513.16 562.04 507.78 574.66 502.05 587.92 496.26 601.59 490.15 615.31 483.75 628.67 477.3 641.38 470.58 652.95 463.61 662.93 456.62 671.19 449.4 677.18 441.97 680.57 434.54 681.59 426.92 679.75 419.12 675.05 411.32 668.08 403.54 658.82 395.81 647.75 388.08 635.49 380.39 622.31 372.76 608.71 365.14 595.25 357.57 582.22 350.09 570 342.6 558.99 335.19 549.29 327.88 541.07 320.57 534.56 313.35 529.61 306.25 526.14 299.15 524.32 292.16 523.72 285.32 524.13 278.49 525.74 271.81 527.94 265.3 530.45 258.82 533.58 252.53 536.61 246.45 539.32 237.53 543.25 221.07 547.22 213.63 546.83 206.68 544.96 194.76 536.16 189.88 529.49 186.92 524.52 184.38 518.91 182.29 512.75 180.36 506.42 178.88 499.64 177.88 492.49 177.02 485.26 176.64 477.74 176.74 469.98 176.95 462.2 177.64 454.23 178.81 446.1 180.06 437.97 181.72 429.88 183.77 421.83 185.86 413.77 188.29 405.74 191.04 397.72 193.77 389.65 196.79 381.56 200.07 373.42 203.29 365.2 206.75 356.88 210.41 348.47 213.99 339.94 217.76 331.27 221.72 322.47 225.56 313.54 229.57 304.48 233.75 295.31 237.8 286.07 242.02 276.76 246.39 267.45 250.65 258.18 255.07 249.01 259.64 240.04 264.11 231.29 268.76 222.89 273.57 214.95 278.29 207.47 283.2 200.61 288.29 194.51 293.3 189.06 298.52 184.49 303.93 180.92 312.06 177.2 329.31 176 338.44 178.33 344.57 180.62 350.92 183.61 357.49 187.18 364.04 190.74 370.82 194.56 377.81 198.47 384.8 201.88 392.02 205.06 399.47 207.89" stroke-dasharray="9 23" transform="rotate(18.454545454545453, 400, 400)" opacity="0.35"></path><path d="M404.59 222.49C411.66 224.38 418.78 225.75 425.93 226.58 433.09 226.5 440.3 225.94 447.52 224.97 454.76 223.27 462.02 221.34 469.28 219.29 476.55 216.83 483.82 214.5 491.05 212.4 498.29 210.25 505.49 208.57 512.6 207.43 519.7 206.54 526.7 206.36 533.56 206.91 540.36 207.91 546.99 209.7 553.39 212.28 559.7 215.37 565.73 219.23 571.44 223.78 577 228.83 582.19 234.5 586.94 240.71 591.48 247.32 595.55 254.38 599.09 261.78 602.36 269.47 605.08 277.42 607.19 285.53 609.01 293.83 610.22 302.23 610.79 310.62 611.1 319.14 610.78 327.62 609.86 335.99 608.72 344.43 607.03 352.73 604.82 360.85 602.51 369 599.76 376.94 596.62 384.61 593.54 392.31 590.18 399.73 586.6 406.81 583.24 413.89 579.84 420.45 576.47 426.47 571.96 435.18 563.97 449.68 560.54 455.41 552.24 468.25 544.94 475.81 542.48 477.71 539.85 480.64 533.11 489.9 528.9 496.97 525.93 503.01 522.6 510.01 518.91 518.01 515.17 527.07 511.06 537.09 506.6 547.97 502.08 559.62 497.22 571.85 492.04 584.41 486.8 597.11 481.26 609.62 475.43 621.61 469.56 632.86 463.42 642.96 457.04 651.53 450.63 658.53 443.98 663.49 437.13 666.15 430.26 666.74 423.19 664.85 415.93 660.45 408.68 654.1 401.41 645.73 394.17 635.73 386.93 624.65 379.71 612.65 372.53 600.16 365.36 587.66 358.23 575.35 351.17 563.59 344.11 552.7 337.11 542.81 330.2 534.08 323.3 526.72 316.48 520.65 309.78 515.85 303.08 512.48 296.5 510.24 290.05 508.98 283.63 508.87 277.35 509.44 271.24 510.47 265.17 512.23 259.28 514.12 253.6 515.94 245.28 518.97 230 522.84 223.13 523.15 216.73 522.44 205.8 516.85 201.36 512.03 197.52 506.21 192.13 491.29 190.63 482.45 189.9 476.31 189.62 469.77 189.79 462.87 190.07 455.94 190.79 448.69 191.96 441.13 193.21 433.58 194.85 425.92 196.85 418.17 198.88 410.42 201.24 402.58 203.91 394.65 206.56 386.7 209.48 378.64 212.66 370.48 215.78 362.28 219.13 353.94 222.69 345.49 226.17 336.99 229.84 328.35 233.68 319.62 237.43 310.85 241.34 301.99 245.4 293.1 249.36 284.24 253.48 275.4 257.74 266.65 261.9 258.05 266.21 249.64 270.66 241.52 275.02 233.71 279.53 226.31 284.2 219.44 288.79 213.06 293.54 207.33 298.46 202.36 305.81 196.27 321.34 189.56 329.53 189.05 335.01 189.6 340.69 191 346.56 193.19 352.4 195.7 358.45 198.81 364.7 202.39 370.93 205.9 377.38 209.61 384.02 213.39 390.66 216.67 397.52 219.74 404.58 222.48" stroke-dasharray="11 10" transform="rotate(21.09090909090909, 400, 400)" opacity="0.40"></path><path d="M409.47 237.09C416.14 238.96 422.85 240.37 429.58 241.29 436.32 241.39 443.08 241.05 449.85 240.33 456.62 238.92 463.4 237.26 470.15 235.47 476.91 233.23 483.65 231.05 490.33 229.02 497 226.86 503.6 225.03 510.1 223.63 516.57 222.35 522.91 221.64 529.09 221.54 535.22 221.75 541.15 222.65 546.84 224.22 552.43 226.2 557.74 228.87 562.74 232.19 567.59 235.93 572.08 240.27 576.16 245.15 580.05 250.4 583.5 256.11 586.47 262.21 589.21 268.6 591.44 275.3 593.14 282.22 594.6 289.35 595.52 296.63 595.87 303.99 596.01 311.49 595.62 319.01 594.69 326.48 593.6 334.03 592.02 341.5 589.98 348.81 587.88 356.17 585.39 363.36 582.54 370.3 579.75 377.27 576.71 383.98 573.44 390.38 570.37 396.79 567.24 402.71 564.09 408.14 559.82 416.01 552.02 429.22 548.53 434.6 542.98 443.42 535.75 453.74 533.4 456.76 531.13 460.33 525.81 469.25 522.63 475.2 520.45 480.08 517.98 485.63 515.22 491.91 512.45 499.04 509.37 506.97 505.98 515.68 502.56 525.18 498.81 535.38 494.75 546.16 490.66 557.41 486.25 568.97 481.54 580.62 476.8 592.2 471.77 603.42 466.47 614 461.14 623.82 455.54 632.5 449.71 639.75 443.85 645.6 437.76 649.62 431.46 651.63 425.14 651.86 418.62 649.94 411.91 645.85 405.2 640.09 398.47 632.57 391.74 623.59 385.01 613.64 378.28 602.8 371.59 591.43 364.9 579.93 358.24 568.45 351.63 557.28 345.03 546.73 338.49 536.88 332.02 527.91 325.57 520 319.19 513.13 312.92 507.3 306.67 502.66 300.52 499.02 294.51 496.27 285.6 494.07 268.65 493.68 260.67 494.67 252.99 496.29 238.94 498.74 232.66 499.01 221.86 496.79 209.46 486.88 206.79 481.26 204.7 474.92 202.73 459.51 202.88 450.59 203.21 444.47 203.95 437.94 205.12 431.02 206.35 424.1 207.95 416.97 209.89 409.66 211.86 402.35 214.14 394.87 216.7 387.23 219.26 379.6 222.07 371.81 225.13 363.88 228.14 355.94 231.38 347.87 234.81 339.68 238.17 331.5 241.72 323.22 245.44 314.88 249.07 306.58 252.87 298.25 256.81 289.95 260.67 281.77 264.67 273.68 268.8 265.77 272.85 258.07 277.04 250.65 281.36 243.57 285.6 236.85 289.99 230.59 294.51 224.89 298.96 219.67 303.56 215.1 308.3 211.26 315.41 206.76 330.33 202.7 338.17 203.16 343.42 204.21 348.84 205.98 354.44 208.42 360.01 211.08 365.76 214.22 371.7 217.76 377.62 221.18 383.72 224.75 390.02 228.36 396.31 231.5 402.79 234.44 409.46 237.08" stroke-dasharray="4 12" transform="rotate(23.72727272727273, 400, 400)" opacity="0.44"></path><path d="M413.85 251.69C420.11 253.53 426.39 254.96 432.67 255.97 438.96 256.24 445.25 256.12 451.52 255.65 464.08 252.84 476.56 249.38 488.76 245.9 500.89 241.63 512.63 238.62 523.7 237.32 534.53 236.82 544.48 238.66 553.24 242.79 561.48 248.26 568.29 255.89 573.4 265.21 577.77 275.61 580.3 287.22 580.86 299.49 580.76 312.33 578.84 325.39 575.2 338.19 573.3 344.66 571.06 351.01 568.5 357.19 565.99 363.39 563.25 369.4 560.29 375.16 556.05 383.61 547.69 398.52 543.7 404.98 539.22 413.36 534.85 420.33 530.62 426.15 527.36 432.41 523.96 438.17 520.3 443.98 517.21 451.22 513.5 459.58 509.05 469.68 504.77 482.24 499.49 497.25 493.18 514.68 486.83 534.2 479.35 555.2 470.81 576.41 462.16 596.71 452.48 614.42 441.85 627.61 433.73 634 416.43 635.99 407.27 631.25 401.11 626.06 394.91 619.34 388.7 611.34 382.5 602.46 376.29 592.76 370.1 582.5 357.74 561.56 345.48 541 333.48 522.42 321.56 506.98 309.94 494.84 298.81 485.98 287.82 480.72 277.4 477.76 267.73 476.15 258.31 476.47 249.76 476.62 242.26 475.84 235.13 475.41 229.16 473.2 224.53 468.96 220.34 464.48 217.54 457.86 216.27 449.18 215.75 442.32 216.75 426.21 218.27 417.04 219.48 410.78 221.03 404.25 222.89 397.49 224.79 390.75 226.97 383.79 229.42 376.64 234.31 362.41 240.15 347.49 246.77 332.18 253.18 317.08 260.29 301.8 267.96 286.79 275.34 272.44 283.28 258.89 291.71 246.73 299.85 236.02 308.54 227.39 317.74 221.38 326.71 217.34 336.27 216.16 346.39 217.93 356.38 221.07 367.01 226.37 378.26 233.29 383.86 236.58 389.63 239.97 395.56 243.39 401.49 246.36 407.58 249.15 413.84 251.68" stroke-dasharray="15 23" transform="rotate(26.363636363636363, 400, 400)" opacity="0.48"></path><path d="M417.51 266.28C429.16 269.23 440.82 270.75 452.35 270.9 463.87 268.74 475.22 265.92 486.22 262.93 497.14 258.98 507.59 255.91 517.34 254.12 526.85 252.7 535.48 253.19 542.98 255.61 550.02 259 555.75 264.32 559.94 271.29 563.54 279.12 565.52 288.25 565.8 298.22 565.57 308.69 563.77 319.63 560.47 330.6 557.08 341.74 552.57 352.66 547.13 363.03 542.23 373.41 537.04 382.67 531.79 390.87 527.42 399.13 523.06 406.56 518.74 413.4 515.24 420.76 511.59 428.13 507.71 435.96 504.35 445.09 500.48 455.45 496.01 467.42 491.74 481.29 486.66 497.07 480.72 514.54 474.79 533.25 467.9 552.65 460.08 571.6 452.2 589.28 443.4 604.29 433.73 615.11 424.02 621.65 413.5 622.34 402.26 616.65 391.01 606.26 379.62 591.25 368.27 573.33 356.96 554.4 345.73 535.31 334.74 517.43 323.83 501.77 313.21 488.56 303.07 478 293.07 470.39 283.61 464.9 274.87 460.9 266.37 458.8 258.67 457.05 251.97 454.96 242.96 452.23 231.37 439.89 229.17 429.35 228.53 421.62 229.26 412.13 231.43 400.93 233.83 389.72 237.44 377.45 242.08 364.45 246.73 351.56 252.28 338.06 258.57 324.31 264.7 310.89 271.49 297.48 278.83 284.55 285.93 272.39 293.56 261.19 301.65 251.48 309.5 243.13 317.86 236.77 326.66 232.83 335.27 230.51 344.41 230.67 354.03 233.31 363.54 236.92 373.6 242.3 384.19 248.96 394.73 254.93 405.85 260.9 417.5 266.28" stroke-dasharray="9 26" transform="rotate(29, 400, 400)" opacity="0.53"></path><path d="M420.26 280.88C431.01 283.79 441.68 285.51 452.14 286.06 462.59 284.56 472.8 282.42 482.59 280.03 492.3 276.58 501.5 273.7 509.98 271.76 518.24 269.84 525.65 269.4 531.99 270.55 537.96 272.3 542.73 275.73 546.14 280.68 549.09 286.26 550.63 293.13 550.7 300.96 550.4 309.2 548.75 318.09 545.81 327.32 542.82 336.69 538.83 346.17 533.98 355.52 529.56 364.88 524.8 373.65 519.91 381.85 515.71 390.16 511.43 398.15 507.1 406.02 503.46 414.4 499.64 423.17 495.61 432.61 492.05 443.12 488.06 454.83 483.57 467.88 479.31 482.26 474.38 498.02 468.74 514.8 463.16 532.14 456.77 549.57 449.6 566.08 442.4 581.14 434.39 593.59 425.62 602.25 416.83 607.29 407.3 607.35 397.12 602.05 386.94 592.88 376.62 579.73 366.34 563.94 356.09 547.04 345.92 529.62 335.98 512.79 326.12 497.42 316.54 483.76 307.41 472.12 298.43 462.77 289.95 455.23 282.15 449.15 274.58 444.79 267.75 441.06 261.85 437.44 253.91 432.89 243.9 419.8 242.13 410.09 241.68 403.11 242.48 394.64 244.58 384.7 246.89 374.75 250.31 363.9 254.67 352.43 259.06 341.1 264.29 329.34 270.2 317.49 276.01 306.02 282.45 294.77 289.4 284.16 296.17 274.3 303.45 265.51 311.15 258.22 318.66 252.1 326.63 247.83 335 245.7 343.21 244.81 351.89 246.04 360.97 249.31 369.96 253.18 379.43 258.48 389.32 264.77 399.18 270.32 409.51 275.85 420.26 280.88" stroke-dasharray="7 13" transform="rotate(31.636363636363633, 400, 400)" opacity="0.57"></path><path d="M421.95 295.48C431.76 298.32 441.41 300.2 450.8 301.13 460.17 300.26 469.23 298.81 477.84 297.08 486.37 294.28 494.36 291.82 501.65 290 511.89 287.49 527.33 288.98 532.05 293.34 534.46 297.1 535.66 302.08 535.6 308.09 535.28 314.37 533.8 321.46 531.21 329.14 528.61 336.9 525.12 345.09 520.83 353.56 516.89 362.04 512.57 370.39 508.04 378.63 504.07 386.98 499.93 395.44 495.69 404.13 492 413.26 488.11 422.99 484.02 433.46 480.32 444.72 476.26 457.03 471.8 470.35 467.56 484.48 462.77 499.5 457.41 514.99 452.13 530.53 446.18 545.73 439.59 559.73 432.99 572.25 425.71 582.31 417.79 589.05 409.85 592.78 401.28 592.34 392.13 587.46 382.99 579.43 373.74 568.02 364.53 554.28 355.35 539.43 346.26 523.8 337.38 508.32 328.59 493.69 320.07 480.15 311.97 468.05 304.01 457.62 296.52 448.64 289.67 440.95 283.01 434.69 277.04 429.18 271.91 424.07 265.04 417.49 256.52 402.72 255.15 393.36 254.88 386.81 255.72 379.16 257.73 370.38 259.93 361.6 263.14 352.18 267.19 342.38 271.29 332.7 276.17 322.82 281.68 313.05 287.12 303.64 293.16 294.63 299.68 286.38 306.07 278.79 312.93 272.3 320.18 267.23 327.29 263.1 334.82 260.62 342.69 259.97 350.45 260.22 358.61 262.21 367.11 265.85 375.53 269.79 384.35 274.85 393.51 280.69 402.64 285.76 412.14 290.82 421.95 295.48" stroke-dasharray="10 3" transform="rotate(34.27272727272727, 400, 400)" opacity="0.61"></path><path d="M422.49 310.08C431.33 312.82 439.96 314.82 448.27 316.06 456.56 315.77 464.5 315 471.97 313.96 479.36 311.89 486.22 310.01 492.4 308.56 507.5 306.16 520.18 313.15 520.52 319.49 520.21 324.21 518.93 329.83 516.68 336.21 514.45 342.63 511.43 349.72 507.67 357.4 504.19 365.09 500.32 373.04 496.19 381.21 492.48 389.49 488.56 398.17 484.48 407.29 480.84 416.73 476.98 426.86 472.91 437.68 469.18 449.01 465.13 461.17 460.74 474.01 456.56 487.23 451.93 500.92 446.85 514.65 441.85 528.11 436.32 540.94 430.26 552.45 424.22 562.57 417.62 570.47 410.5 575.51 403.36 578.12 395.69 577.31 387.56 572.86 379.42 565.91 371.21 556.14 363.07 544.34 354.95 531.5 346.93 517.76 339.13 503.86 331.4 490.35 323.93 477.43 316.87 465.46 309.91 454.61 303.41 444.82 297.48 436.1 291.72 428.48 286.59 421.59 282.21 415.24 278.04 409.58 274.65 404.03 272.17 398.36 269.91 392.99 268.57 387.18 268.24 380.81 268.11 374.5 268.98 367.48 270.89 359.76 272.95 352.03 275.92 343.99 279.65 335.84 283.43 327.79 287.92 319.79 292.99 312.09 298.03 304.68 303.62 297.81 309.65 291.77 315.6 286.25 321.99 281.8 328.72 278.64 335.37 276.17 342.38 275.13 349.7 275.61 356.94 276.66 364.52 279.12 372.37 282.87 380.17 286.7 388.29 291.4 396.66 296.69 405.02 301.25 413.65 305.81 422.49 310.08" stroke-dasharray="12 23" transform="rotate(36.90909090909091, 400, 400)" opacity="0.65"></path><path d="M421.87 324.68C429.71 327.28 437.3 329.34 444.55 330.84 451.77 331.08 458.63 330.94 465.02 330.56 474.25 328.67 489.59 325.34 495.41 324.83 502.73 327.35 504.67 340.47 502.22 348.07 500.34 353.43 497.76 359.6 494.51 366.57 491.48 373.54 488.05 381.01 484.34 388.91 480.95 396.9 477.3 405.44 473.46 414.5 469.95 423.77 466.21 433.69 462.27 444.18 458.59 454.94 454.63 466.28 450.4 477.99 446.33 489.78 441.9 501.71 437.12 513.38 432.42 524.6 427.3 535.05 421.77 544.19 416.26 552.09 410.31 558.07 403.95 561.65 397.58 563.34 390.79 562.26 383.63 558.26 376.46 552.33 369.28 544.09 362.18 534.13 355.1 523.24 348.13 511.42 341.39 499.24 334.7 487.15 328.28 475.27 322.22 463.94 316.25 453.28 310.7 443.35 305.67 434.21 300.78 425.83 296.44 418.1 292.78 410.93 289.27 404.31 286.46 397.97 284.44 391.77 282.6 385.83 281.56 379.8 281.39 373.58 281.39 367.42 282.26 360.95 284.04 354.16 285.96 347.38 288.66 340.61 292.05 333.99 295.49 327.45 299.56 321.17 304.16 315.35 308.75 309.75 313.84 304.78 319.33 300.64 324.78 296.88 330.63 294.1 336.8 292.46 342.9 291.26 349.34 291.26 356.03 292.48 362.68 294.02 369.6 296.66 376.75 300.3 383.86 303.86 391.22 308.09 398.76 312.78 406.29 316.79 414.02 320.82 421.87 324.68" stroke-dasharray="1 9" transform="rotate(39.54545454545454, 400, 400)" opacity="0.70"></path><path d="M420.1 339.28C426.94 341.71 433.49 343.77 439.7 345.45 448.81 346.33 464.85 345.99 471.56 345.43 486.13 346.53 489.86 357.23 487.83 363.67 486.28 368.23 484.11 373.64 481.36 379.9 478.76 386.17 475.78 393.04 472.5 400.42 469.45 407.86 466.13 415.87 462.6 424.38 459.31 433 455.79 442.15 452.07 451.7 448.55 461.34 444.77 471.33 440.77 481.43 436.9 491.44 432.74 501.34 428.3 510.81 423.94 519.78 419.25 527.93 414.25 534.88 406.62 542.97 389.74 547.81 380.55 543.66 374.33 538.68 368.13 531.86 362.05 523.61 355.98 514.59 350.04 504.68 344.32 494.31 338.64 483.85 333.21 473.33 328.13 463.07 323.11 453.15 318.47 443.64 314.29 434.69 310.22 426.22 306.64 418.24 303.64 410.77 300.76 403.68 298.48 396.94 296.88 390.49 295.42 384.26 294.64 378.15 294.61 372.14 294.71 366.19 295.56 360.23 297.2 354.29 298.94 348.35 301.37 342.71 304.39 337.43 309.27 329.79 321.55 317.34 328.74 313 336.25 309.83 352.79 308.49 361.69 310.42 367.66 312.14 373.87 314.72 380.24 318.05 386.61 321.21 393.15 324.87 399.81 328.91 406.47 332.35 413.26 335.85 420.1 339.28" stroke-dasharray="0 20" transform="rotate(42.18181818181818, 400, 400)" opacity="0.74"></path><path d="M417.28 353.88C428.93 357.51 439.43 360.36 448.34 362.5 460.62 362.25 474.66 365.31 475.63 371.78 475.36 376.74 472.88 384.65 468.2 395.75 463.98 406.83 458.36 420.29 451.89 435.27 446.07 450.4 439.3 466.97 431.83 483.55 424.76 499.37 416.68 513.75 407.77 524.51 398.95 532.11 389.1 534.06 378.49 529.06 367.88 519.92 357.55 505.72 348.04 488.94 338.64 471.42 330.24 453.53 323.4 436.85 316.85 421.17 312.05 406.78 309.5 394.02 307.34 381.82 307.5 370.44 310.35 360.13 313.51 349.82 318.96 341.43 326.06 335.33 333.22 329.49 341.92 326.41 351.59 326.43 361.21 326.81 371.83 330.13 382.93 336.01 394.01 341.03 405.64 347.25 417.28 353.88" stroke-dasharray="0 25" transform="rotate(44.81818181818182, 400, 400)" opacity="0.78"></path><path d="M413.57 368.47C423.19 371.83 431.75 374.89 438.92 377.62 448.81 379.19 460.03 384.74 460.87 391.03 460.74 395.62 458.82 402.58 455.05 412.12 451.59 421.66 446.85 433.04 441.29 445.46 436.16 457.84 430.14 470.98 423.53 483.63 417.2 495.49 410.07 505.82 402.36 513.08 394.73 518.09 386.37 518.84 377.55 514.46 368.73 507.27 360.29 496.21 352.64 482.99 345.05 468.95 338.37 454.15 333.03 439.89 327.87 426.02 324.17 412.96 322.31 401.33 320.71 390.01 321.01 379.73 323.51 370.95 326.23 362.16 330.84 355.56 336.82 351.23 342.87 346.97 350.23 345.13 358.39 345.78 366.56 346.42 375.54 349.29 384.88 354.08 394.22 358.01 403.95 362.97 413.57 368.47" stroke-dasharray="19 25" transform="rotate(47.45454545454546, 400, 400)" opacity="0.83"></path><path d="M409.14 383.07C416.76 386.03 423.47 389.06 429.05 392.05 436.74 394.92 445.5 402.53 446.23 408.73 446.23 413.09 444.81 419.12 441.9 426.98 439.18 434.83 435.35 443.83 430.79 453.33 426.48 462.72 421.41 472.3 415.83 481.16 410.43 489.38 404.41 496.18 398.01 500.61 391.67 503.58 384.84 503.52 377.78 499.86 370.72 494.45 364.09 486.24 358.17 476.36 352.29 465.78 347.2 454.33 343.2 443 339.31 431.71 336.58 420.83 335.31 411.02 334.19 401.35 334.56 392.63 336.66 385.39 340.78 375.55 355.33 365.93 364.88 365.96 371.49 366.43 378.74 368.56 386.24 372.11 393.75 374.96 401.52 378.7 409.14 383.07" stroke-dasharray="22 23" transform="rotate(50.09090909090909, 400, 400)" opacity="0.87"></path><path d="M404.24 397.67C415.54 401.65 423.97 407.07 428.36 413.48 432.66 418.26 433.04 426.43 428.74 438.46 424.86 450.49 417.48 464.33 408.64 475.77 400.16 485.53 389.79 489.92 379.17 485.26 368.54 476.75 359.6 461.59 353.93 445.37 348.47 428.78 346.62 412.87 349.81 401.66 353.36 390.44 361.25 385.56 371.12 386.32 381.1 386.28 392.95 390.41 404.24 397.67" stroke-dasharray="0 4" transform="rotate(52.72727272727273, 400, 400)" opacity="0.91"></path><path d="M399.12 412.27C406.56 415.4 412.11 420.13 415.04 425.63 417.96 430.4 418.33 437.03 415.59 445.15 413.02 453.26 407.98 461.37 401.88 467.3 395.94 472.44 388.77 474.14 381.64 470.67 374.51 465.51 368.72 456.35 365.2 446.29 361.76 435.87 360.72 425.43 362.97 417.72 365.38 410 370.65 406.28 377.21 406.14 383.83 405.49 391.68 407.63 399.12 412.27" stroke-dasharray="6 13" transform="rotate(55.36363636363637, 400, 400)" opacity="0.96"></path></g></svg>
