<svg version="1.1" xmlns="http://www.w3.org/2000/svg" style="display: block;" viewBox="0 0 2048 2048" width="512" height="512">
<path transform="translate(0,0)" fill="rgb(0,0,0)" d="M 0 0 L 984.652 0 L 1081.75 0 L 2048 0 L 2048 982.316 L 2048 1073.89 L 2048 2048 L 1078.71 2048 L 977.174 2048 L 0 2048 L 0 1079.64 L 0 967.393 L 0 0 z M 993.335 127.5 A 889.536 889.536 0 0 0 375.887 405.194 A 910.624 910.624 0 0 0 141.408 853.678 C 134.166 889.729 130.893 926.034 126.376 962.44 C 146.976 961.554 167.688 962.386 188.305 962.37 L 306.732 962.329 L 608.93 962.322 L 794.318 962.017 L 852.779 961.984 C 864.083 962.014 875.733 961.577 886.983 962.668 C 898.776 963.812 910.893 969.406 919.615 977.366 C 932.464 989.091 938.54 1003.14 939.169 1020.47 C 940.514 1057.53 939.495 1094.97 939.727 1132.08 L 939.691 1446.27 L 939.85 1600.1 A 6066.05 6066.05 0 0 1 939.977 1665.55 C 939.946 1680.9 940.419 1696.53 938.553 1711.79 C 937.151 1723.26 931.725 1733.56 923.923 1741.95 C 913.784 1752.85 900.374 1758.53 885.584 1759.02 C 861.363 1759.83 833.232 1747.91 810.641 1739.77 A 905.601 905.601 0 0 1 487.774 1539.84 C 439.881 1494.34 398.508 1442.46 359.69 1389.21 C 350.274 1376.3 339.298 1363.65 332.116 1349.32 C 327.741 1340.6 325.206 1331.28 324.972 1321.5 A 64.9518 64.9518 0 0 1 342.861 1275.33 C 357.235 1260.42 375.322 1256.45 395.382 1256.23 C 420.549 1255.97 445.792 1256.65 470.971 1256.65 L 652.618 1256.55 L 761.91 1256.9 C 779.208 1257.03 796.793 1256.54 814.056 1257.47 C 812.275 1225.52 814.811 1192.74 814.912 1160.71 A 1945.11 1945.11 0 0 0 814.699 1120.05 C 814.473 1109.75 813.579 1099.33 814.524 1089.06 C 790.309 1087.2 765.61 1088.07 741.33 1088.18 L 637.53 1088.26 L 264.903 1088.48 C 218.87 1088.33 172.481 1089.79 126.507 1088.33 C 145.323 1289.77 213.701 1465.31 349.425 1616.47 C 380.708 1651.31 412.917 1682.99 448.942 1712.93 A 905.135 905.135 0 0 0 1052.58 1921.87 A 902.654 902.654 0 0 0 1588.71 1720.67 C 1619.04 1696.2 1648.04 1670.48 1674.67 1641.98 A 1021.92 1021.92 0 0 0 1750.47 1551.97 A 903.112 903.112 0 0 0 1907.55 1186.42 A 785.014 785.014 0 0 0 1916.21 1125.34 C 1917.42 1113.38 1917.88 1101.3 1919.35 1089.39 C 1871.28 1091.53 1822.5 1089.56 1774.37 1089.05 L 1579.89 1088.62 L 1346.34 1088.83 L 1273.01 1088.74 C 1259.58 1088.71 1245.94 1089.21 1232.55 1088.45 C 1232.89 1144.6 1233.7 1200.96 1232.59 1257.09 C 1332.79 1255.67 1433.19 1257.05 1533.4 1256.99 L 1619.48 1256.66 C 1637.95 1256.57 1657.69 1255.15 1675.93 1258.25 C 1687.08 1260.14 1698.27 1267.22 1706.27 1275.09 C 1718.22 1286.84 1724.17 1302.31 1724.04 1318.98 C 1723.97 1327.57 1722.58 1336.54 1718.86 1344.33 C 1711.59 1359.56 1698.98 1372.95 1688.97 1386.52 C 1676.61 1403.28 1664.86 1420.55 1652.04 1436.96 A 1135.38 1135.38 0 0 1 1555.35 1543.95 A 865.578 865.578 0 0 1 1235.54 1740.93 C 1215.02 1748.19 1189.6 1759.73 1167.54 1759.12 C 1151.59 1758.69 1135.08 1751.32 1124.13 1739.71 C 1114.74 1729.75 1110.87 1718.85 1109.5 1705.33 C 1108.49 1695.3 1109.21 1684.83 1109.38 1674.76 A 2115.32 2115.32 0 0 0 1109.75 1628.9 L 1109.34 1441.46 L 1109.58 1155.17 L 1109.69 1072.33 C 1109.67 1056.05 1109.06 1039.59 1109.88 1023.34 C 1110.81 1004.92 1114.98 989.972 1129.28 977.398 C 1139.12 968.74 1151.05 963.249 1164.13 961.874 C 1186.5 959.524 1210.71 961.908 1233.29 962.007 L 1377.62 962.254 L 1746 962.48 C 1803.86 962.457 1861.81 963.294 1919.65 962.346 C 1914.63 913.023 1909.95 864.282 1898.65 815.87 C 1854.71 627.702 1740.19 451.502 1590.81 329.677 A 894.507 894.507 0 0 0 993.335 127.5 z M 0 1079.64 L 0 2048 L 977.174 2048 C 963.405 2042.66 946.154 2044.41 931.587 2043.2 C 914.862 2041.81 897.914 2039.98 881.32 2037.49 C 809.8 2026.77 741.475 2009.6 673.38 1985.1 C 652.548 1977.6 631.647 1970.22 611.525 1960.94 C 571.257 1942.37 531.787 1922.7 493.947 1899.51 A 1032.83 1032.83 0 0 1 37.7086 1302.53 C 27.0993 1264.55 18.3211 1225.33 12.5366 1186.29 A 1252.77 1252.77 0 0 1 5.85981 1132.04 C 4.50027 1117.73 5.89585 1093.83 0.713041 1081.25 C 0.490162 1080.71 0.23768 1080.18 0 1079.64 z M 0 0 L 0 967.393 C 4.36746 958.724 6.69097 908.851 8.45952 895.023 C 11.3237 872.629 14.6481 850.082 18.9691 827.924 C 34.0495 750.592 59.8086 667.818 93.4235 596.511 A 1040.61 1040.61 0 0 1 638.474 74.7833 C 673.198 60.7749 708.139 48.1286 744.384 38.6117 C 788.673 26.9828 833.068 16.0717 878.467 9.71044 C 895.162 7.37111 912.323 5.39807 929.144 4.34964 C 945.883 3.30623 968.286 6.18548 983.874 0.312463 C 984.136 0.213912 984.393 0.104154 984.652 0 L 0 0 z M 1081.75 0 C 1082.27 0.256752 1082.78 0.531427 1083.31 0.770257 C 1093.42 5.3545 1110.22 3.90468 1121.49 4.62754 C 1137.39 5.64744 1153.26 8.57386 1169.02 10.9001 C 1216.93 17.9739 1261.75 27.4963 1308.32 40.8374 A 1029.9 1029.9 0 0 1 1968.63 627.591 C 1995.14 689.194 2020.28 764.858 2031.33 831.026 C 2036.66 862.971 2040.97 895.451 2043.33 927.754 C 2044.19 939.478 2042.01 973.761 2048 982.316 L 2048 0 L 1081.75 0 z M 2048 1073.89 C 2047.74 1074.47 2047.46 1075.05 2047.22 1075.64 C 2043.15 1085.47 2042.45 1133.38 2040.27 1148.74 C 2033.42 1197.02 2024.3 1245.64 2011.2 1292.63 A 1024.16 1024.16 0 0 1 1450.3 1955.85 A 952.38 952.38 0 0 1 1252.9 2022.47 A 1034.77 1034.77 0 0 1 1133.65 2042 C 1119.93 2043.43 1089.26 2042.37 1078.71 2048 L 2048 2048 L 2048 1073.89 z M 1501.59 1383.48 L 1336.94 1383.98 C 1302.22 1384.03 1267.33 1384.67 1232.63 1383.62 A 14797.4 14797.4 0 0 1 1232.84 1548.95 C 1232.88 1568.02 1232.41 1587.24 1232.98 1606.3 C 1240.41 1603.37 1247.77 1600.4 1255.03 1597.06 C 1345.81 1558.61 1438.75 1488.3 1504.88 1415.45 C 1514.51 1404.83 1524.44 1394.35 1533.13 1382.93 A 1174.35 1174.35 0 0 1 1501.59 1383.48 z M 516.089 1383.44 L 515.133 1384.98 C 520.748 1394.29 531.592 1403.76 539.12 1411.86 C 603.623 1481.29 686.387 1545.6 772.548 1585.86 C 784.23 1591.31 798.692 1599.65 811.344 1602.2 C 812.674 1602.47 812.533 1602.29 814.18 1601.97 L 814.523 1456.14 C 814.514 1432.31 812.573 1407.39 814.159 1383.72 L 625.962 1383.8 C 589.64 1383.88 552.306 1385.64 516.089 1383.44 z"/>
<path transform="translate(0,0)" fill="rgb(0,0,0)" d="M 733.652 280.441 C 785.907 279.304 838.379 280.225 890.654 280.445 L 1075.09 280.525 L 1224.54 280.723 C 1253.55 280.698 1282.91 279.734 1311.89 280.977 C 1320.52 281.347 1329.6 282.142 1337.77 285.143 C 1363.37 294.541 1457.02 376.669 1479.86 398.466 A 1481.99 1481.99 0 0 1 1572.01 493.614 A 1338 1338 0 0 1 1700.83 670.299 C 1709.46 684.371 1719.65 698.958 1725.91 714.24 A 58.6497 58.6497 0 0 1 1730.44 736.316 C 1730.73 753.829 1724.83 768.969 1712.5 781.465 C 1704.67 789.392 1694.49 796.457 1683.42 798.587 C 1667.27 801.695 1649.92 800.624 1633.52 800.654 L 1564.45 800.666 L 1316.09 800.529 L 684.492 800.273 L 480.486 800.638 L 417.715 800.687 C 405.032 800.682 392.035 801.162 379.407 799.987 C 365.345 798.678 352.749 793.565 341.968 784.389 C 328.342 772.791 319.685 756.699 318.525 738.763 A 62.0856 62.0856 0 0 1 322.474 712.689 C 329.383 694.556 341.982 677.571 352.13 661.117 C 361.619 645.732 370.607 630.018 380.46 614.861 C 410.765 568.244 445.092 522.86 482.244 481.493 C 537.335 420.153 592.4 369.874 657.872 319.837 C 672.58 308.596 688 294.613 704.812 286.704 C 714.317 282.233 723.261 281.017 733.652 280.441 z M 754.151 407.397 C 738.886 412.992 719.424 430.84 706.825 441.229 A 1070.69 1070.69 0 0 0 553.007 594.498 C 531.971 619.919 511.067 646.889 494.29 675.345 C 531.629 673.345 569.033 673.971 606.41 674.117 L 746 674.222 L 1291.4 674.098 A 18800.2 18800.2 0 0 1 1552.62 674.096 C 1491.36 587.721 1421.46 507.216 1339.31 439.998 C 1329.14 431.675 1312.4 416.55 1301.81 410.037 C 1301.5 409.841 1301.19 409.624 1300.87 409.433 C 1297.59 407.473 1292.34 407.579 1288.59 407.448 C 1261.68 406.505 1234.5 407.185 1207.57 407.133 L 1047.82 407.014 L 868.74 406.94 A 4980.11 4980.11 0 0 0 754.151 407.397 z"/>
</svg>